<svg width="25" height="50" viewBox="0 0 25 50" fill="none" xmlns="http://www.w3.org/2000/svg">
<path id="Vector" fill-rule="evenodd" clip-rule="evenodd" d="M15.9091 0C16.5119 0 17.0899 0.239447 17.5162 0.665666C17.9424 1.09189 18.1818 1.66996 18.1818 2.27273V7.68636L21.4591 9.32273C22.2364 9.71364 22.7273 10.5091 22.7273 11.3773V45.4545C23.33 45.4545 23.9081 45.694 24.3343 46.1202C24.7606 46.5464 25 47.1245 25 47.7273C25 48.33 24.7606 48.9081 24.3343 49.3343C23.9081 49.7606 23.33 50 22.7273 50H2.27273C1.66996 50 1.09189 49.7606 0.665667 49.3343C0.239448 48.9081 0 48.33 0 47.7273C0 47.1245 0.239448 46.5464 0.665667 46.1202C1.09189 45.694 1.66996 45.4545 2.27273 45.4545V31.8273C2.27273 31.2182 2.51364 30.6341 2.94545 30.2045L9.09091 24.0591V6.85455C9.09091 5.15 10.8864 4.03864 12.4136 4.80227L13.6364 5.41364V2.27273C13.6364 1.66996 13.8758 1.09189 14.302 0.665666C14.7282 0.239447 15.3063 0 15.9091 0ZM18.1818 37.3045L10.0318 45.4545H18.1818V37.3045ZM9.30455 30.2727L6.81818 32.7591V42.2409L14.7227 34.3364L9.30455 30.2727ZM18.1818 21.3955L12.55 27.0273L18.1818 31.25V21.3955ZM13.6364 10.4955V19.5136L18.1818 14.9682V12.7682L13.6364 10.4955Z" fill="#C2FF51"/>
</svg>
